<svg width="219" height="30" viewBox="0 0 219 30" fill="none" xmlns="http://www.w3.org/2000/svg">
<path d="M21.2 9.48C20.56 8.30667 19.68 7.41333 18.56 6.8C17.44 6.18667 16.1333 5.88 14.64 5.88C12.9867 5.88 11.52 6.25333 10.24 7C8.96 7.74667 7.96 8.81333 7.24 10.2C6.52 11.5867 6.16 13.1867 6.16 15C6.16 16.8667 6.52 18.4933 7.24 19.88C7.98667 21.2667 9.01333 22.3333 10.32 23.08C11.6267 23.8267 13.1467 24.2 14.88 24.2C17.0133 24.2 18.76 23.64 20.12 22.52C21.48 21.3733 22.3733 19.7867 22.8 17.76H13.2V13.48H28.32V18.36C27.9467 20.3067 27.1467 22.1067 25.92 23.76C24.6933 25.4133 23.1067 26.7467 21.16 27.76C19.24 28.7467 17.08 29.24 14.68 29.24C11.9867 29.24 9.54667 28.64 7.36 27.44C5.2 26.2133 3.49333 24.52 2.24 22.36C1.01333 20.2 0.4 17.7467 0.4 15C0.4 12.2533 1.01333 9.8 2.24 7.64C3.49333 5.45333 5.2 3.76 7.36 2.56C9.54667 1.33333 11.9733 0.719999 14.64 0.719999C17.7867 0.719999 20.52 1.49333 22.84 3.04C25.16 4.56 26.76 6.70667 27.64 9.48H21.2ZM45.4231 29.28C42.8098 29.28 40.4098 28.6667 38.2231 27.44C36.0365 26.2133 34.3031 24.52 33.0231 22.36C31.7431 20.1733 31.1031 17.7067 31.1031 14.96C31.1031 12.24 31.7431 9.8 33.0231 7.64C34.3031 5.45333 36.0365 3.74666 38.2231 2.52C40.4098 1.29333 42.8098 0.68 45.4231 0.68C48.0631 0.68 50.4631 1.29333 52.6231 2.52C54.8098 3.74666 56.5298 5.45333 57.7831 7.64C59.0631 9.8 59.7031 12.24 59.7031 14.96C59.7031 17.7067 59.0631 20.1733 57.7831 22.36C56.5298 24.52 54.8098 26.2133 52.6231 27.44C50.4365 28.6667 48.0365 29.28 45.4231 29.28ZM45.4231 24.28C47.1031 24.28 48.5831 23.9067 49.8631 23.16C51.1431 22.3867 52.1431 21.2933 52.8631 19.88C53.5831 18.4667 53.9431 16.8267 53.9431 14.96C53.9431 13.0933 53.5831 11.4667 52.8631 10.08C52.1431 8.66667 51.1431 7.58667 49.8631 6.84C48.5831 6.09333 47.1031 5.72 45.4231 5.72C43.7431 5.72 42.2498 6.09333 40.9431 6.84C39.6631 7.58667 38.6631 8.66667 37.9431 10.08C37.2231 11.4667 36.8631 13.0933 36.8631 14.96C36.8631 16.8267 37.2231 18.4667 37.9431 19.88C38.6631 21.2933 39.6631 22.3867 40.9431 23.16C42.2498 23.9067 43.7431 24.28 45.4231 24.28ZM69.4694 24.56H78.6694V29H63.8694V1.08H69.4694V24.56ZM91.9888 1.08C94.9221 1.08 97.4954 1.65333 99.7088 2.8C101.949 3.94666 103.669 5.58667 104.869 7.72C106.095 9.82667 106.709 12.28 106.709 15.08C106.709 17.88 106.095 20.3333 104.869 22.44C103.669 24.52 101.949 26.1333 99.7088 27.28C97.4954 28.4267 94.9221 29 91.9888 29H82.2288V1.08H91.9888ZM91.7888 24.24C94.7221 24.24 96.9888 23.44 98.5888 21.84C100.189 20.24 100.989 17.9867 100.989 15.08C100.989 12.1733 100.189 9.90667 98.5888 8.28C96.9888 6.62667 94.7221 5.8 91.7888 5.8H87.8288V24.24H91.7888ZM116.501 5.6V12.6H125.901V17.04H116.501V24.44H127.101V29H110.901V1.04H127.101V5.6H116.501ZM156.07 29H150.47L137.79 9.84V29H132.19V1.04H137.79L150.47 20.24V1.04H156.07V29ZM164.084 29.28C163.07 29.28 162.23 28.9733 161.564 28.36C160.924 27.72 160.604 26.9333 160.604 26C160.604 25.0667 160.924 24.2933 161.564 23.68C162.23 23.04 163.07 22.72 164.084 22.72C165.07 22.72 165.884 23.04 166.524 23.68C167.164 24.2933 167.484 25.0667 167.484 26C167.484 26.9333 167.164 27.72 166.524 28.36C165.884 28.9733 165.07 29.28 164.084 29.28ZM177.514 1.08V18.36C177.514 20.2533 178.008 21.7067 178.994 22.72C179.981 23.7067 181.368 24.2 183.154 24.2C184.968 24.2 186.368 23.7067 187.354 22.72C188.341 21.7067 188.834 20.2533 188.834 18.36V1.08H194.474V18.32C194.474 20.6933 193.954 22.7067 192.914 24.36C191.901 25.9867 190.528 27.2133 188.794 28.04C187.088 28.8667 185.181 29.28 183.074 29.28C180.994 29.28 179.101 28.8667 177.394 28.04C175.714 27.2133 174.381 25.9867 173.394 24.36C172.408 22.7067 171.914 20.6933 171.914 18.32V1.08H177.514ZM205.605 24.28H218.165V29H199.125V24.68L211.605 5.8H199.125V1.08H218.165V5.4L205.605 24.28Z" fill="white"/>
</svg>
