<svg width="20" height="16" viewBox="0 0 20 16" fill="none" xmlns="http://www.w3.org/2000/svg">
<path d="M14.78 3.22C14.922 3.36 15 3.551 15 3.75V6.25C15 6.44891 14.921 6.63968 14.7803 6.78033C14.6397 6.92098 14.4489 7 14.25 7C14.0511 7 13.8603 6.92098 13.7197 6.78033C13.579 6.63968 13.5 6.44891 13.5 6.25V5.56L11.78 7.28C11.7108 7.3516 11.628 7.4087 11.5365 7.44796C11.445 7.48722 11.3465 7.50786 11.2469 7.50868C11.1474 7.5095 11.0486 7.49048 10.9565 7.45272C10.8643 7.41497 10.7806 7.35924 10.7102 7.28879C10.6398 7.21834 10.5842 7.13457 10.5465 7.04238C10.5088 6.95019 10.4899 6.85142 10.4908 6.75184C10.4917 6.65226 10.5125 6.55385 10.5518 6.46237C10.5912 6.37088 10.6483 6.28815 10.72 6.219L12.44 4.5H11.75C11.5511 4.5 11.3603 4.42098 11.2197 4.28033C11.079 4.13968 11 3.94891 11 3.75C11 3.55109 11.079 3.36032 11.2197 3.21967C11.3603 3.07902 11.5511 3 11.75 3H14.25C14.4488 3.00017 14.6395 3.07931 14.78 3.22ZM5 12.25C5 12.4489 5.07902 12.6397 5.21967 12.7803C5.36032 12.921 5.55109 13 5.75 13H8.251C8.44991 13 8.64068 12.921 8.78133 12.7803C8.92198 12.6397 9.001 12.4489 9.001 12.25C9.001 12.0511 8.92198 11.8603 8.78133 11.7197C8.64068 11.579 8.44991 11.5 8.251 11.5H7.561L9.281 9.78C9.41755 9.63848 9.49306 9.449 9.49126 9.25235C9.48946 9.0557 9.41049 8.86763 9.27137 8.72864C9.13225 8.58965 8.9441 8.51086 8.74745 8.50924C8.5508 8.50763 8.36139 8.58331 8.22 8.72L6.5 10.438V9.748C6.5 9.54909 6.42098 9.35832 6.28033 9.21767C6.13968 9.07702 5.94891 8.998 5.75 8.998C5.55109 8.998 5.36032 9.07702 5.21967 9.21767C5.07902 9.35832 5 9.54909 5 9.748V12.248V12.25ZM0 2.75C0 2.02065 0.289731 1.32118 0.805456 0.805456C1.32118 0.289731 2.02065 0 2.75 0H17.25C17.9793 0 18.6788 0.289731 19.1945 0.805456C19.7103 1.32118 20 2.02065 20 2.75V13.25C20 13.6111 19.9289 13.9687 19.7907 14.3024C19.6525 14.636 19.4499 14.9392 19.1945 15.1945C18.9392 15.4499 18.636 15.6525 18.3024 15.7907C17.9687 15.9289 17.6111 16 17.25 16H2.75C2.38886 16 2.03127 15.9289 1.69762 15.7907C1.36398 15.6525 1.06082 15.4499 0.805456 15.1945C0.550095 14.9392 0.347532 14.636 0.209331 14.3024C0.0711308 13.9687 0 13.6111 0 13.25V2.75ZM2.75 1.5C2.06 1.5 1.5 2.06 1.5 2.75V13.25C1.5 13.94 2.06 14.5 2.75 14.5H17.25C17.94 14.5 18.5 13.94 18.5 13.25V2.75C18.5 2.06 17.94 1.5 17.25 1.5H2.75Z" fill="#828282"/>
</svg>
