<svg width="70" height="70" viewBox="0 0 70 70" fill="none" xmlns="http://www.w3.org/2000/svg">
<path d="M66.5908 16.8257V41.4848H60.0151V20.1136L43.5757 8.60605L27.1363 20.1136V25.0454H20.5605V16.8257L43.5757 0.386353L66.5908 16.8257ZM48.5075 18.4697H45.2196V21.7576H48.5075V18.4697ZM41.9317 18.4697H38.6439V21.7576H41.9317V18.4697ZM48.5075 25.0454H45.2196V28.3333H48.5075V25.0454ZM41.9317 25.0454H38.6439V28.3333H41.9317V25.0454ZM60.0151 48.0606H53.4393C53.4393 44.1151 50.9734 40.5642 47.291 39.1833L27.0376 31.6212H0.833252V67.7879H20.5605V63.0533L43.5757 69.4318L69.8787 61.2121V57.9242C69.8787 52.4664 65.4729 48.0606 60.0151 48.0606ZM7.40901 61.2121V38.197H13.9848V61.2121H7.40901ZM43.477 62.5601L20.5605 56.2145V38.197H25.854L44.9895 45.3317C46.1073 45.7591 46.8636 46.8441 46.8636 48.0606C46.8636 48.0606 40.3207 47.8962 39.3014 47.5674L31.4763 44.97L29.4049 51.217L37.2301 53.8144C38.9069 54.3733 40.6495 54.6692 42.4249 54.6692H60.0151C61.2973 54.6692 62.4481 55.4254 62.9742 56.5104L43.477 62.5601Z" fill="#316499"/>
</svg>
