<svg width="75" height="58" viewBox="0 0 75 58" fill="none" xmlns="http://www.w3.org/2000/svg">
<path d="M59.4046 9.68026C59.3712 10.0139 59.3515 10.3945 59.3428 10.8073L54.6048 13.07C53.9412 12.9613 50.6502 13.1528 45.7417 10.7307C44.4972 10.1165 43.2812 9.79025 42.1134 9.79025C41.0565 9.79172 40.0151 10.0437 39.0745 10.5255C37.835 10.2574 36.0493 9.57027 35.0051 9.57274C32.6422 9.5851 27.2702 11.5092 25.7823 11.6736C24.3266 11.833 22.8275 12.2334 21.3186 12.8711C18.5764 12.0728 15.1384 10.769 13.2971 10.0485L0.42627 0.667603V30.8334L9.88505 35.3341C10.0222 35.1735 10.1792 34.9263 10.3497 34.6198L10.6426 34.7558C10.7859 35.1265 10.9441 35.496 11.1171 35.8631C10.0791 37.6105 9.95549 39.5791 10.7847 41.2907C11.4953 42.7551 12.8188 43.7833 14.2931 44.0712C14.3735 44.9832 14.6799 45.8656 15.1965 46.6305C16.1233 47.9986 17.5964 48.8154 19.1399 48.8154C19.2796 48.8154 19.4192 48.8093 19.5576 48.7932C19.7776 49.3876 20.1001 49.9412 20.5191 50.4207C21.4509 51.4922 22.7559 52.1064 24.0979 52.1064C24.1968 52.1064 24.2932 52.1039 24.3908 52.0965C24.5614 52.744 24.8518 53.357 25.2571 53.9032C26.1901 55.1637 27.6298 55.9138 29.1103 55.9138C30.0298 55.9138 30.9084 55.6321 31.6832 55.1044C33.181 56.0658 34.4836 56.7418 35.639 57.157C36.2186 57.3931 36.8217 57.5142 37.4371 57.5142C38.8929 57.5142 40.3054 56.8345 41.3138 55.6457C41.6882 55.2033 41.9922 54.7089 42.2147 54.18C42.6503 54.3118 43.1029 54.3793 43.558 54.3802C45.1052 54.3802 46.5721 53.6227 47.5867 52.2979C48.0687 51.6701 48.4177 50.9506 48.6124 50.1835C48.7187 50.1909 48.8237 50.1946 48.9288 50.1946C50.717 50.1946 52.4285 49.1454 53.3912 47.4561C53.8959 46.5773 54.1638 45.5826 54.1685 44.5692C55.9357 44.306 57.4916 43.0492 58.2491 41.2165C58.9956 39.411 58.7929 37.4189 57.7511 35.758L62.5645 33.0454C62.6881 33.4681 62.8092 33.8574 62.9266 34.1737L74.574 27.9762V2.69678L59.4046 9.68026ZM59.4034 13.4334C59.48 14.7705 59.6196 16.2819 59.8001 17.86C58.8114 16.1991 57.5633 15.4415 56.0136 15.0646L59.4034 13.4334ZM52.9426 42.7909C50.2881 41.8777 44.7629 35.3823 44.7629 35.3823H44.8717C45.4339 35.3428 46.6487 34.7508 48.0118 35.0338C45.8714 33.195 43.5172 34.7508 41.9144 33.798C42.2864 34.9906 44.0746 35.3663 44.5331 35.3811L49.8272 41.5378C52.2246 44.3245 50.5551 47.7724 48.1515 48.3211C46.5387 47.5364 41.9848 42.1199 41.9848 42.1199C42.1405 42.0915 43.0637 41.8023 44.0041 41.9259C41.8328 40.302 39.3711 41.7108 37.9104 40.6913C38.7384 42.7366 41.4658 42.2126 41.7513 42.1631L44.5837 45.7791C46.8502 48.6708 45.0694 52.0112 42.662 52.4635C40.5278 51.7134 39.1425 49.0441 39.1425 49.0441C39.3575 49.0094 40.0768 48.6894 41.1 48.8377C39.2797 47.2423 37.1603 48.6894 35.8862 47.7811C36.6734 49.4964 38.6358 49.1058 38.7458 49.0935C40.7083 52.1842 38.6729 55.4072 36.2409 55.5036H36.2384L36.2359 55.5048C34.7752 55.2515 33.2453 54.0836 31.5176 52.8849C32.1108 52.2275 32.6348 51.072 32.6348 51.072C34.3699 47.9306 32.1182 45.1525 29.7937 45.391C31.6795 45.9064 33.0933 48.3137 31.6215 50.9867L30.9751 52.0742C30.2732 53.3533 29.1771 54.1256 28.3713 54.0305C27.1306 53.8797 25.3819 52.068 26.1172 49.5124C26.4015 49.2529 29.1424 45.0598 29.1424 45.0598C31.027 42.0247 28.9114 39.1194 26.5806 39.2182C28.4368 39.8448 29.7381 42.3337 28.1377 44.9165L25.9096 48.3903C25.1496 49.6187 24.1659 50.3144 23.2279 50.1859C21.7722 49.9882 20.7514 48.2124 20.985 46.3797C20.9726 46.3908 22.589 44.5828 22.589 44.5828C24.7368 41.7763 22.898 38.6424 20.571 38.478C22.3592 39.3109 23.4244 41.9358 21.5992 44.3246L20.8107 45.2909C19.9457 46.4254 18.9039 47.0025 17.9919 46.7751C16.4002 46.376 15.5722 43.3977 16.3248 42.5858C16.9167 41.9469 18.5789 39.9239 18.5789 39.9239C20.7254 37.1162 18.8891 33.9834 16.5596 33.8166C18.349 34.652 19.4143 37.2768 17.589 39.6668L16.8006 40.6308C15.9306 41.7751 14.8851 42.3498 13.9669 42.1162C12.0539 41.6318 11.0986 38.6782 12.9288 36.2808C12.9288 36.2808 12.3072 34.306 12.0267 33.4619L11.1048 33.0343C13.2662 27.9985 16.5312 16.8837 16.6819 13.1912C18.2736 13.7584 22.4753 14.967 22.9215 14.9695L22.919 14.9719C27.442 13.5508 32.1825 13.7077 34.3451 12.8723C35.0458 12.6054 36.4398 12.5881 37.9178 13.4334C36.9947 14.2428 36.1222 15.2067 35.2164 16.1052C33.0513 18.2542 25.0013 21.6057 26.5535 25.1302C27.8931 28.1715 31.6659 31.2832 37.9945 26.3981L41.5535 25.9087L47.0887 28.6398L54.1821 35.9248C56.7118 38.5175 55.2795 42.0371 52.9426 42.7909ZM54.7222 34.7644C53.909 33.2444 51.3744 30.7518 48.9819 28.714L48.9671 28.6992C50.0706 28.7436 51.2286 26.9666 52.7251 26.8294C51.6797 26.0311 49.9471 26.953 49.407 27.0988C46.43 27.8996 41.8032 24.1539 41.8032 24.1539L37.3766 24.7916C37.3766 24.7916 32.1121 31.2165 27.6768 25.9236C25.2682 23.0491 33.9967 19.2947 36.1469 17.1581C38.9015 14.4208 41.3558 11.0718 45.8875 13.353C49.6517 15.2512 51.1347 15.1338 56.1841 16.0125C57.6893 16.2757 58.7323 16.9653 59.8507 18.3111C60.3772 22.7401 61.2286 27.6524 62.0455 31.0706C61.6241 31.4253 58.0119 33.8549 54.7222 34.7644Z" fill="#316499"/>
</svg>
